{"title":"Take My Wife 2016 S01 1080p SESO WEBRip AAC2 0 x264-monkee","uid":15826533,"size":4198317240,"categoryP":"video","categoryS":"hd___tv_shows","magnet":"?xt=urn:btih:34ec413c29530cc386dbd2c8582a6fdf3bc19d0b&amp;dn=Take+My+Wife+2016+S01+1080p+SESO+WEBRip+AAC2+0+x264-monkee&amp;tr=udp%3A%2F%2Ftracker.leechers-paradise.org%3A6969&amp;tr=udp%3A%2F%2Fzer0day.ch%3A1337&amp;tr=udp%3A%2F%2Fopen.demonii.com%3A1337&amp;tr=udp%3A%2F%2Ftracker.coppersurfer.tk%3A6969&amp;tr=udp%3A%2F%2Fexodus.desync.com%3A6969","seeders":9,"leechers":6,"uploader":"Anon_up","files":6,"time":1473855570,"description":"1st episode free on Youtube Seeso channel\r\n\r\nTake My Wife is an American sitcom. The show follows real life couple Cameron Esposito and Rhea Butcher as they share their lives as stand up comics who are balancing work, relationships, and the breaking down of gender barriers.\r\n\r\ni.imgur.com/5DA2puN.jpg\r\n\r\n\r\nComplete name               : Take.My.Wife.S01E02.Punchline.1080p.SESO.WEBRip.AAC2.0.x264-monkee.mkv\r\nFormat                      : Matroska\r\nFormat version              : Version 4 / Version 2\r\nFile size                   : 567 MiB\r\nDuration                    : 19 min\r\nOverall bit rate            : 4 122 kb/s\r\nEncoded date                : UTC 2016-08-26 12:42:4732bit\r\nWriting library             : libebml v1.3.1 + libmatroska v1.4.2\r\n\r\nVideo\r\nID                          : 1\r\nFormat                      : AVC\r\nFormat/Info                 : Advanced Video Codec\r\nFormat profile              :   \r\nFormat settings, CABAC      : Yes\r\nFormat settings, ReFrames   : 1 frame\r\nFormat settings, GOP        : M=1, N=48\r\nCodec ID                    : V_MPEG4/ISO/AVC\r\nDuration                    : 19 min\r\nBit rate                    : 4 096 kb/s\r\nWidth                       : 1 920 pixels\r\nHeight                      : 1 080 pixels\r\nDisplay aspect ratio        : 16:9\r\nFrame rate mode             : Variable\r\nFrame rate                  : 23.976 FPS\r\nColor space                 : YUV\r\nChroma subsampling          : 4:2:0\r\nBit depth                   : 8 bits\r\nScan type                   : Progressive\r\nBits/(Pixel*Frame)          : 0.082\r\nStream size                 : 553 MiB (98%)\r\nWriting library             : x264 core 120\r\nDefault                     : Yes\r\nForced                      : No\r\n\r\nAudio\r\nID                          : 2\r\nFormat                      : AAC\r\nFormat/Info                 : Advanced Audio Codec\r\nFormat profile              : LC\r\nCodec ID                    : A_AAC\r\nDuration                    : 19 min\r\nBit rate                    : 96.0 kb/s\r\nChannel(s)                  : 2 channels\r\nChannel positions           : Front: L R\r\nSampling rate               : 44.1 kHz\r\nFrame rate                  : 43.066 FPS (1024 spf)\r\nCompression mode            : Lossy\r\nStream size                 : 13.2 MiB (2%)\r\nDefault                     : Yes\r\nForced                      : No\r\n\r\nText\r\nID                          : 3\r\nFormat                      : UTF-8\r\nCodec ID                    : S_TEXT/UTF8\r\nCodec ID/Info               : UTF-8 Plain Text\r\nDuration                    : 18 min\r\nBit rate                    : 113 b/s\r\nCount of elements           : 728\r\nStream size                 : 15.5 KiB (0%)\r\nLanguage                    : English\r\nDefault                     : No\r\nForced                      : No\r\n\r\nCredits to monkee","torrent":{"xt":"urn:btih:34ec413c29530cc386dbd2c8582a6fdf3bc19d0b","amp;dn":"Take+My+Wife+2016+S01+1080p+SESO+WEBRip+AAC2+0+x264-monkee","amp;tr":["udp%3A%2F%2Ftracker.leechers-paradise.org%3A6969","udp%3A%2F%2Fzer0day.ch%3A1337","udp%3A%2F%2Fopen.demonii.com%3A1337","udp%3A%2F%2Ftracker.coppersurfer.tk%3A6969","udp%3A%2F%2Fexodus.desync.com%3A6969"],"infoHash":"34ec413c29530cc386dbd2c8582a6fdf3bc19d0b","infoHashBuffer":{"type":"Buffer","data":[52,236,65,60,41,83,12,195,134,219,210,200,88,42,111,223,59,193,157,11]},"announce":[],"urlList":[]}}